<svg xmlns="http://www.w3.org/2000/svg" width="452.999" height="370.47" viewBox="0 0 452.999 370.47">
  <path id="Subtraction_17" data-name="Subtraction 17" d="M193.342,502.97c-9.614,0-25.195-3-46.309-8.917-16.431-4.6-36.124-10.943-58.532-18.84V132.5h453V357h-1.542v97a181.764,181.764,0,0,0-24.141-8.081,281.067,281.067,0,0,0-27.988-6.016,305,305,0,0,0-36.657-3.7c-2.732-.11-5.541-.166-8.348-.166a254.188,254.188,0,0,0-36.636,2.806c-10.173,1.491-20.61,3.568-31.022,6.175A278.126,278.126,0,0,0,345.645,454c-.047.027-5.505,3.072-14.717,7.652-8.423,4.188-21.717,10.507-37.22,16.833a411.06,411.06,0,0,1-49.327,16.833C225.243,500.4,208.071,502.97,193.342,502.97Z" transform="translate(-88.501 -132.5)" fill="#5091ee"/>
</svg>
