<svg id="Component_7_1" data-name="Component 7 – 1" xmlns="http://www.w3.org/2000/svg" width="453" height="545.606" viewBox="0 0 453 545.606">
  <g id="Component_6_1" data-name="Component 6 – 1">
    <g id="Group_15" data-name="Group 15" transform="translate(647.499 1819)">
      <path id="Subtraction_18" data-name="Subtraction 18" d="M515.341,758.605h0c-1.268,0-2.54-.031-3.779-.092-23.435-1.146-76.34-21.351-157.245-60.054C286.037,665.8,211.775,626.606,161.5,599.48V572.5h448V716.878c-15.7,12.379-30.974,22.165-45.4,29.086a142.117,142.117,0,0,1-24.335,9.2A94.389,94.389,0,0,1,515.341,758.605Z" transform="translate(-804 -2032)" fill="#7fadef"/>
      <path id="Subtraction_22" data-name="Subtraction 22" d="M105.221,583.969c-9.653,0-25.29-3-46.478-8.917C42.255,570.449,22.491,564.11,0,556.212V213.5H.5V49H453V534.962a184.371,184.371,0,0,0-24.138-8.042,283.415,283.415,0,0,0-28.089-6.016,307.358,307.358,0,0,0-36.79-3.7c-2.745-.11-5.564-.166-8.377-.166a255.994,255.994,0,0,0-36.769,2.806c-10.216,1.492-20.692,3.57-31.135,6.175A282.147,282.147,0,0,0,258.081,535l-.007,0c-.04.023-5.464,3.042-14.77,7.652-8.451,4.187-21.792,10.506-37.354,16.833a413.365,413.365,0,0,1-49.506,16.833C137.238,581.395,120,583.969,105.221,583.969Z" transform="translate(-647.499 -1868)" fill="#5091ee"/>
    </g>
  </g>
</svg>
